<svg width="136" height="200" viewBox="0 0 136 200" fill="none" xmlns="http://www.w3.org/2000/svg">
<mask id="mask0_3493_60722" style="mask-type:alpha" maskUnits="userSpaceOnUse" x="0" y="0" width="136" height="200">
<path d="M36.9073 124.17C35.0043 126.195 32.6716 127.238 30.0933 127.238C24.9982 127.238 21.008 123.311 21.008 118.342C21.008 113.434 24.8754 109.446 29.6636 109.446C32.1191 109.446 34.4518 110.428 36.3548 112.268L36.4776 112.391L38.442 110.182L38.3806 110.121C36.0479 107.79 33.1013 106.563 29.725 106.563C23.1565 106.563 18 111.778 18 118.403C18 121.778 19.3505 124.845 21.7446 127.054C24.016 129.14 27.0239 130.244 30.2161 130.244C33.6538 130.244 36.9073 128.833 39.1786 126.317L39.24 126.195L37.0301 124.17H36.9073Z" fill="#404B59"/>
<path d="M46.2995 106.992H43.2301V129.692H46.2995V106.992Z" fill="#404B59"/>
<path d="M63.4266 109.446L63.8563 106.563H63.7335C63.4266 106.502 62.4444 106.44 62.0147 106.44C58.8839 106.44 56.3057 107.974 55.0779 109.569V106.931H52.0085V129.63H55.0779V114.232C56.2443 111.348 59.0681 109.385 61.9533 109.385C62.6286 109.385 63.0583 109.385 63.2424 109.446H63.4266Z" fill="#404B59"/>
<path d="M82.8863 124.17C80.9833 126.195 78.6506 127.238 76.0723 127.238C70.9772 127.238 66.987 123.311 66.987 118.342C66.987 113.434 70.8544 109.446 75.6426 109.446C78.0981 109.446 80.4308 110.428 82.3338 112.268L82.4566 112.391L84.421 110.182L84.3596 110.121C82.0269 107.79 79.0803 106.563 75.704 106.563C69.1355 106.563 63.979 111.778 63.979 118.403C63.979 121.778 65.3295 124.845 67.7236 127.054C69.995 129.14 73.0029 130.244 76.1951 130.244C79.6328 130.244 82.8863 128.833 85.1576 126.317L85.219 126.195L83.0091 124.17H82.8863Z" fill="#404B59"/>
<path d="M92.2172 95.3972H89.1478V129.63H92.2172V95.3972Z" fill="#404B59"/>
<path d="M107.38 106.501C101.18 106.501 96.5144 111.593 96.5144 118.342C96.5144 125.213 101.303 130.182 107.932 130.182C111.677 130.182 115.115 128.649 117.202 126.011L117.263 125.888L115.115 123.802L114.992 123.925C113.212 126.072 110.756 127.238 107.932 127.238C103.267 127.238 99.8907 123.741 99.6452 118.71H117.939V118.587C118 118.158 118 117.79 118 117.606C117.939 111.225 113.396 106.501 107.38 106.501ZM99.8293 115.888C100.75 111.962 103.697 109.446 107.441 109.446C111.186 109.446 114.133 112.084 114.808 115.888H99.8293Z" fill="#404B59"/>
<path d="M38.0123 74.1089C36.2321 71.6549 33.2241 70.2439 29.9092 70.2439H29.8478C26.5329 70.2439 23.5863 71.6549 21.7447 74.1089C20.5783 75.6427 19.7803 77.4832 19.7803 81.4095V93.4954H22.8496V81.5936C22.8496 78.4034 23.4635 77.0537 24.1388 76.1335C25.4279 74.2316 27.5151 73.1887 29.9092 73.1887C32.3033 73.1887 34.3905 74.293 35.6796 76.1335C36.3549 77.0537 36.9687 78.4034 36.9687 81.5936V93.4954H40.0381V81.4095C39.9767 77.4832 39.1787 75.6427 38.0123 74.1089Z" fill="#404B59"/>
<path d="M68.2148 82.1458C68.2148 75.52 63.0582 70.3053 56.5512 70.3053C49.9827 70.3053 44.8876 75.52 44.8876 82.1458C44.8876 88.7715 50.0441 93.9863 56.5512 93.9863C63.0582 93.9863 68.2148 88.7715 68.2148 82.1458ZM65.1454 82.1458C65.1454 87.2378 61.4622 91.0415 56.5512 91.0415C51.6402 91.0415 47.9569 87.2378 47.9569 82.1458C47.9569 77.0538 51.6402 73.2501 56.5512 73.2501C61.4622 73.2501 65.1454 77.0538 65.1454 82.1458Z" fill="#404B59"/>
<path d="M80.8608 88.5262L72.7576 70.8575L72.6963 70.7961H69.3199L79.8786 93.4955H81.9044L92.2788 70.9802L92.4016 70.7961H89.0253L80.8608 88.5262Z" fill="#404B59"/>
<path d="M98.4789 91.839C100.505 93.2501 102.776 93.9863 105.231 93.9863C108.424 93.9863 111.37 92.6979 113.15 90.4893V93.4955H116.158V70.7961H113.15V73.6795C111.125 71.5323 108.178 70.3053 105.047 70.3053C102.408 70.3053 99.8294 71.2255 97.8036 72.8206C95.1026 75.0906 93.5679 78.4648 93.5679 82.1458C93.6293 86.1335 95.4095 89.6918 98.4789 91.839ZM96.6986 82.1458C96.6986 79.3237 97.8036 76.747 99.768 75.1519C101.241 73.9249 103.206 73.2501 105.109 73.2501C108.976 73.2501 111.984 75.8881 113.028 77.6673V86.2562C111.247 89.2624 108.301 91.0415 105.17 91.0415C103.451 91.0415 101.794 90.4893 100.198 89.3851C97.9878 87.8513 96.6986 85.1519 96.6986 82.1458Z" fill="#404B59"/>
<path d="M68 200C30.5104 200 0 169.878 0 132.866V67.1342C0 30.122 30.5104 0 68 0C105.49 0 136 30.122 136 67.1342V132.866C136 169.878 105.49 200 68 200ZM68 3.04878C32.178 3.04878 3.0881 31.8293 3.0881 67.1342V132.866C3.0881 168.232 32.2398 196.951 68 196.951C103.76 196.951 132.912 168.171 132.912 132.866V67.1342C132.912 31.8293 103.822 3.04878 68 3.04878Z" fill="#404B59"/>
</mask>
<g mask="url(#mask0_3493_60722)">
<rect x="-119" y="-10" width="375" height="219" fill="white"/>
</g>
</svg>
