<svg
width="334"
height="500"
viewBox="0 0 334 500"
fill="none"
xmlns="http://www.w3.org/2000/svg"
>
<g clip-path="url(#clip0_621_948)">
  <path
    d="M329.5 320.353C329.5 417.627 256.443 496 167 496C77.5575 496 4.5 417.627 4.5 320.353V179.647C4.5 82.373 77.5575 4 167 4C256.443 4 329.5 82.373 329.5 179.647V320.353Z"
    stroke="black"
    stroke-width="8"
  />
  <path
    d="M72.1963 176H72.032C63.7302 176 56.3795 179.491 51.8676 185.572C48.9542 189.416 47.012 193.966 47.012 203.683V233.822H54.6365V204.175C54.6365 196.204 56.1455 192.942 57.7789 190.6C60.9712 185.94 66.1953 183.26 72.1117 183.245C78.028 183.26 83.2522 185.935 86.4494 190.6C88.0829 192.942 89.5918 196.204 89.5918 204.175V233.822H97.2164V203.683C97.2164 193.966 95.2741 189.416 92.3608 185.572C87.8488 179.491 80.4982 176 72.1963 176Z"
    fill="black"
  />
  <path
    d="M227.351 238.531H219.687V323.772H227.351V238.531Z"
    fill="black"
  />
  <path
    d="M72.7292 317.71C79.049 317.71 84.8956 315.085 89.6317 310.112L89.8607 309.863L95.3787 314.97L95.1546 315.219C89.557 321.43 81.4294 324.995 72.8537 324.995C64.9104 324.995 57.4303 322.176 51.7829 317.049C45.7968 311.614 42.5 303.976 42.5 295.542C42.5 279.028 55.3487 266.089 71.7531 266.089C80.2143 266.089 87.4703 269.048 93.307 274.876L93.5361 275.1L88.6805 280.624L88.4215 280.376C83.6954 275.801 77.9334 273.379 71.7531 273.379C59.8507 273.379 50.1644 283.319 50.1644 295.542C50.1644 307.974 60.0748 317.71 72.7292 317.71Z"
    fill="black"
  />
  <path
    d="M105.414 267.317H113.078V323.777H105.414V267.317Z"
    fill="black"
  />
  <path
    d="M152.217 266.094C144.358 266.094 138.043 269.903 134.916 273.936V267.317H127.251V323.777H134.916V285.458C137.889 278.227 144.781 273.379 152.092 273.379C153.711 273.379 154.891 273.424 155.344 273.498L155.688 273.558L156.768 266.402L156.435 266.348C155.673 266.218 153.213 266.094 152.217 266.094Z"
    fill="black"
  />
  <path
    d="M187.212 317.71C193.531 317.71 199.378 315.085 204.114 310.112L204.343 309.863L209.861 314.97L209.637 315.219C204.039 321.43 195.912 324.995 187.336 324.995C179.393 324.995 171.913 322.176 166.265 317.049C160.279 311.614 156.983 303.976 156.983 295.542C156.983 279.028 169.831 266.089 186.236 266.089C194.697 266.089 201.953 269.048 207.789 274.876L208.019 275.1L203.163 280.624L202.904 280.376C198.178 275.801 192.416 273.379 186.236 273.379C174.333 273.379 164.647 283.319 164.647 295.542C164.647 307.974 174.557 317.71 187.212 317.71Z"
    fill="black"
  />
  <path
    fill-rule="evenodd"
    clip-rule="evenodd"
    d="M238.143 295.547C238.143 278.755 249.772 266.094 265.19 266.094C280.19 266.094 291.5 277.969 291.5 293.712C291.5 294.224 291.5 295.08 291.376 296.199L291.341 296.502H245.823C246.49 309.013 254.966 317.715 266.535 317.715C273.671 317.715 279.762 314.881 284.154 309.52L284.388 309.237L289.782 314.354L289.588 314.597C284.428 321.111 275.808 325 266.535 325C250.085 325 238.143 312.613 238.143 295.547ZM265.19 273.379C255.922 273.379 248.532 279.674 246.261 289.456H283.532C281.933 279.968 274.443 273.379 265.19 273.379Z"
    fill="black"
  />
  <path
    fill-rule="evenodd"
    clip-rule="evenodd"
    d="M138.402 176.075C154.736 176.075 167.53 189.013 167.53 205.528C167.53 222.042 154.732 234.975 138.402 234.98C122.067 234.98 109.273 222.042 109.273 205.528C109.273 189.013 122.067 176.075 138.402 176.075ZM138.397 183.36C126.161 183.36 116.933 192.892 116.933 205.528C116.933 218.163 126.166 227.691 138.397 227.691C150.633 227.691 159.861 218.163 159.861 205.528C159.861 192.887 150.633 183.36 138.397 183.36Z"
    fill="black"
  />
  <path
    d="M199.094 221.35L178.825 177.497L178.731 177.298H170.384L196.669 233.757H201.639L227.575 177.78L227.8 177.298H219.458L199.094 221.35Z"
    fill="black"
  />
  <path
    fill-rule="evenodd"
    clip-rule="evenodd"
    d="M259.388 176.075C267.117 176.075 274.398 179.128 279.508 184.473V177.298H286.928V233.757H279.508V226.214C275.006 231.718 267.705 234.975 259.757 234.975C253.547 234.975 247.874 233.185 242.899 229.655C235.255 224.314 230.872 215.523 230.872 205.528C230.872 196.482 234.712 188.049 241.405 182.395C246.335 178.377 252.889 176.075 259.388 176.075ZM259.637 227.691C267.536 227.691 274.866 223.21 279.264 215.706V194.364C276.595 189.908 269.189 183.355 259.513 183.355C254.762 183.355 249.931 185.065 246.256 188.049C241.355 192.086 238.542 198.456 238.542 205.523C238.542 213.016 241.784 219.774 247.217 223.593C251.161 226.313 255.34 227.691 259.637 227.691Z"
    fill="black"
  />
</g>
<defs>
  <clipPath id="clip0_621_948">
    <rect
      width="333"
      height="500"
      fill="white"
      transform="translate(0.5)"
    />
  </clipPath>
</defs>
</svg>
